<?xml version="1.0" encoding="UTF-8"?>
<svg enable-background="new 0 0 459 459" version="1.1" viewBox="0 0 459 459" xml:space="preserve" xmlns="http://www.w3.org/2000/svg">
		<ellipse cx="230.11" cy="229.39" rx="223.84" ry="224.91" fill="#8364e2" stroke="#fff" stroke-linecap="square" stroke-width="1.0399"/><path d="m229.5 0c-126.97 0-229.5 102.84-229.5 229.5 0 126.8 102.72 229.5 229.5 229.5 127.35 0 229.5-103.18 229.5-229.5 0-126.95-102.92-229.5-229.5-229.5zm118.1 364.67c-32.714 28.668-74.201 44.33-118.1 44.33-43.892 0-85.372-15.657-118.08-44.314-4.425-3.876-6.425-9.834-5.245-15.597 11.3-55.195 46.457-98.725 91.209-113.05-23.353-13.824-39.381-42.225-39.381-75.042 0-46.392 32.012-84 71.5-84s71.5 37.608 71.5 84c0 32.812-16.023 61.209-39.369 75.035 44.751 14.319 79.909 57.848 91.213 113.04 1.179 5.755-0.825 11.725-5.243 15.597z" fill="#eee"/>
</svg>
